<?xml version="1.0" encoding="UTF-8"?> <svg xmlns="http://www.w3.org/2000/svg" width="2730" height="1852" viewBox="0 0 2730 1852" fill="none"><mask id="mask0_36_56292" style="mask-type:luminance" maskUnits="userSpaceOnUse" x="0" y="0" width="2730" height="1852"><path d="M2729.8 0.192383H0.225342V1851.87H2729.8V0.192383Z" fill="white"></path></mask><g mask="url(#mask0_36_56292)"><path fill-rule="evenodd" clip-rule="evenodd" d="M2173.72 1301.81C2200.6 1307.12 2268.67 1277.08 2268.26 1357.51C2267.28 1402.79 2277.26 1498.46 2237.05 1497.19C2210.17 1491.88 2142.1 1521.91 2142.55 1441.49C2143.53 1396.21 2133.55 1300.53 2173.76 1301.81H2173.72Z" stroke="#F2A300" stroke-width="2.4" stroke-miterlimit="22.93"></path><path d="M2205.38 1198.27V1600.65" stroke="#F2A300" stroke-width="2.4" stroke-miterlimit="22.93"></path><path d="M2092.66 1399.5H2318.11" stroke="#F2A300" stroke-width="2.4" stroke-miterlimit="22.93"></path><path fill-rule="evenodd" clip-rule="evenodd" d="M2239.49 1398.69C2239.61 1415.35 2232.91 1429.4 2223.98 1432.22C2221.31 1468.36 2189.95 1468.9 2186.86 1432.89C2166.64 1427.85 2166.57 1371.82 2186.79 1366.64C2189.46 1330.5 2220.82 1329.96 2223.91 1365.97C2232.68 1368.73 2239.38 1382.23 2239.49 1398.69Z" stroke="#F2A300" stroke-width="2.4" stroke-miterlimit="22.93"></path><path fill-rule="evenodd" clip-rule="evenodd" d="M2241.19 1198.27C2338.29 1202.57 2315.66 1162.46 2318.11 1335.53C2318.11 1341.78 2315.24 1346.96 2311.71 1346.96H2241.19C2237.69 1346.96 2234.79 1341.85 2234.79 1335.53V1209.69C2234.79 1203.44 2237.65 1198.27 2241.19 1198.27Z" stroke="#F2A300" stroke-width="2.4" stroke-miterlimit="22.93"></path><path fill-rule="evenodd" clip-rule="evenodd" d="M2241.19 1600.65C2338.29 1596.35 2315.66 1636.47 2318.11 1463.39C2318.11 1457.14 2315.24 1451.97 2311.71 1451.97H2241.19C2237.69 1451.97 2234.79 1457.08 2234.79 1463.39V1589.23C2234.79 1595.48 2237.65 1600.65 2241.19 1600.65Z" stroke="#F2A300" stroke-width="2.4" stroke-miterlimit="22.93"></path><path fill-rule="evenodd" clip-rule="evenodd" d="M2169.58 1198.27C2072.48 1202.57 2095.11 1162.46 2092.66 1335.53C2092.66 1341.78 2095.52 1346.96 2099.06 1346.96H2169.58C2173.08 1346.96 2175.98 1341.85 2175.98 1335.53V1209.69C2175.98 1203.44 2173.12 1198.27 2169.58 1198.27Z" stroke="#F2A300" stroke-width="2.4" stroke-miterlimit="22.93"></path><path fill-rule="evenodd" clip-rule="evenodd" d="M2169.58 1600.65C2072.48 1596.35 2095.11 1636.47 2092.66 1463.39C2092.66 1457.14 2095.52 1451.97 2099.06 1451.97H2169.58C2173.08 1451.97 2175.98 1457.08 2175.98 1463.39V1589.23C2175.98 1595.48 2173.12 1600.65 2169.58 1600.65Z" stroke="#F2A300" stroke-width="2.4" stroke-miterlimit="22.93"></path><path fill-rule="evenodd" clip-rule="evenodd" d="M1975.31 1301.81C2002.19 1307.12 2070.26 1277.08 2069.85 1357.51C2068.87 1402.79 2078.84 1498.46 2038.63 1497.19C2011.75 1491.88 1943.68 1521.91 1944.13 1441.49C1945.11 1396.21 1935.14 1300.53 1975.35 1301.81H1975.31Z" stroke="#F2A300" stroke-width="2.4" stroke-miterlimit="22.93"></path><path d="M2006.93 1198.27V1600.65" stroke="#F2A300" stroke-width="2.4" stroke-miterlimit="22.93"></path><path d="M1894.21 1399.5H2119.69" stroke="#F2A300" stroke-width="2.4" stroke-miterlimit="22.93"></path><path fill-rule="evenodd" clip-rule="evenodd" d="M2041.04 1398.69C2041.16 1415.35 2034.46 1429.4 2025.53 1432.22C2022.86 1468.36 1991.5 1468.9 1988.41 1432.89C1968.19 1427.85 1968.12 1371.82 1988.34 1366.64C1991.01 1330.5 2022.37 1329.96 2025.46 1365.97C2034.23 1368.73 2040.93 1382.23 2041.04 1398.69Z" stroke="#F2A300" stroke-width="2.4" stroke-miterlimit="22.93"></path><path fill-rule="evenodd" clip-rule="evenodd" d="M2042.78 1198.27C2139.87 1202.57 2117.25 1162.46 2119.69 1335.53C2119.69 1341.78 2116.83 1346.96 2113.29 1346.96H2042.78C2039.28 1346.96 2036.38 1341.85 2036.38 1335.53V1209.69C2036.38 1203.44 2039.24 1198.27 2042.78 1198.27Z" stroke="#F2A300" stroke-width="2.4" stroke-miterlimit="22.93"></path><path fill-rule="evenodd" clip-rule="evenodd" d="M2042.78 1600.65C2139.87 1596.35 2117.25 1636.47 2119.69 1463.39C2119.69 1457.14 2116.83 1451.97 2113.29 1451.97H2042.78C2039.28 1451.97 2036.38 1457.08 2036.38 1463.39V1589.23C2036.38 1595.48 2039.24 1600.65 2042.78 1600.65Z" stroke="#F2A300" stroke-width="2.4" stroke-miterlimit="22.93"></path><path fill-rule="evenodd" clip-rule="evenodd" d="M1971.13 1198.27C1874.03 1202.57 1896.66 1162.46 1894.21 1335.53C1894.21 1341.78 1897.07 1346.96 1900.61 1346.96H1971.13C1974.63 1346.96 1977.53 1341.85 1977.53 1335.53V1209.69C1977.53 1203.44 1974.67 1198.27 1971.13 1198.27Z" stroke="#F2A300" stroke-width="2.4" stroke-miterlimit="22.93"></path><path fill-rule="evenodd" clip-rule="evenodd" d="M1971.13 1600.65C1874.03 1596.35 1896.66 1636.47 1894.21 1463.39C1894.21 1457.14 1897.07 1451.97 1900.61 1451.97H1971.13C1974.63 1451.97 1977.53 1457.08 1977.53 1463.39V1589.23C1977.53 1595.48 1974.67 1600.65 1971.13 1600.65Z" stroke="#F2A300" stroke-width="2.4" stroke-miterlimit="22.93"></path><path fill-rule="evenodd" clip-rule="evenodd" d="M2307.94 1626.99C2344.42 1627.8 2344.46 1525.67 2307.94 1526.48H1871.06V1626.99H2001.06V1653.53H1871.06V1677.52H2001.06V1701.5H1871.06V1725.49H2345.93V1701.5H2211.26V1677.52H2345.93V1653.53H2211.26V1626.99H2307.94ZM2014.54 1626.99H2027.98V1653.53H2014.54V1626.99ZM2041.42 1626.99H2054.82V1677.52H2085.92V1653.53H2068.26V1626.99H2099.4V1701.5H2041.38V1626.99H2041.42ZM2112.88 1626.99H2144.02V1653.53H2126.36V1677.52H2157.46V1626.99H2170.86V1701.5H2112.84V1626.99H2112.88ZM2184.38 1626.99H2197.82V1653.53H2184.38V1626.99ZM2197.82 1701.5H2184.38V1677.52H2197.82V1701.5ZM2014.54 1701.5V1677.52H2027.98V1701.5H2014.54Z" fill="#580D11"></path><path fill-rule="evenodd" clip-rule="evenodd" d="M2389.34 990.53C2433.69 990.53 2469.98 1069.54 2469.98 1166.09V2154.48C2469.98 2251.03 2433.69 2330.04 2389.34 2330.04C2344.99 2330.04 2308.69 2251.03 2308.69 2154.48V1166.09C2308.69 1069.54 2344.99 990.53 2389.34 990.53Z" fill="#580D11"></path><path fill-rule="evenodd" clip-rule="evenodd" d="M2389.34 990.53C2433.69 990.53 2469.98 1069.41 2469.98 1165.82V2152.87C2469.98 2249.28 2433.69 2328.16 2389.34 2328.16V990.463V990.53Z" fill="#8D1D22"></path><path fill-rule="evenodd" clip-rule="evenodd" d="M2308.58 1526.48H2470.1C2485.57 1526.48 2498.26 1549.06 2498.26 1576.74C2498.26 1604.35 2485.61 1626.99 2470.1 1626.99H2308.58C2293.11 1626.99 2280.42 1604.42 2280.42 1576.74C2280.42 1549.12 2293.07 1526.48 2308.58 1526.48Z" fill="#580D11"></path><path fill-rule="evenodd" clip-rule="evenodd" d="M1871.1 1126.45H2558.23L2541.59 1196.39C2529.81 1245.84 2529.09 1275.27 2509.82 1275.27H1871.13V1126.45H1871.1Z" fill="#580D11"></path><path fill-rule="evenodd" clip-rule="evenodd" d="M1871.1 1188.19H2423.79C2507.86 1187.52 2611.73 1149.9 2655.22 1006.79C2584.81 889.681 2504.36 768.677 2441.75 640.148C2421.08 691.882 2404.55 720.571 2373.98 735.084C2341.9 753.762 1915.11 739.585 1871.1 743.751V1188.26V1188.19Z" fill="#8D1D22"></path><path fill-rule="evenodd" clip-rule="evenodd" d="M1885.82 769.214H1947.86V1077.87C1948.13 1115.29 1926.06 1123.42 1909.31 1119.73C1896.4 1119.73 1885.85 1100.92 1885.85 1077.87V769.214H1885.82ZM2237.42 769.214L2254.89 1077.87C2256.17 1100.78 2244.31 1119.73 2231.44 1119.73C2214.68 1123.29 2192.58 1115.29 2192.88 1077.87V769.214H2237.42ZM2289.12 769.214H2252.18L2269.69 1077.87C2270.97 1115.23 2291.07 1123.49 2308.24 1119.73C2321.16 1119.73 2334.78 1100.18 2331.7 1077.87L2289.12 769.214ZM2332.49 769.483L2405.11 1077.87C2410.23 1099.64 2397.88 1119.73 2384.97 1119.73C2367.24 1123.69 2347.13 1114.15 2343.07 1077.87L2301.88 769.214C2309.45 769.214 2324.17 769.215 2332.45 769.483H2332.49ZM2479.77 1063.02L2382.64 756.113C2369.38 763.302 2356.62 766.729 2346.49 768.274C2359.29 797.299 2419.19 1129.27 2444 1116.03C2460.95 1111.2 2495.06 1112.94 2479.77 1063.02ZM2394.87 748.454C2409.25 773.447 2499.2 1105.49 2520.88 1088.15C2540.84 1078.81 2567.42 1073.77 2548.11 1022.98L2419.38 724.401C2411.59 734.479 2403.27 742.273 2394.83 748.387L2394.87 748.454ZM2429.28 709.888C2433.58 702.699 2437.53 694.637 2441.14 685.634L2606.31 960.362C2626.15 988.311 2596.45 1011.22 2587.03 1029.36C2577.81 1043.14 2569.75 1026.61 2561.24 1007.39L2429.25 709.888H2429.28ZM2116.12 769.214H2178.16V1077.87C2178.43 1115.29 2156.36 1123.42 2139.61 1119.73C2126.7 1119.73 2116.15 1100.92 2116.15 1077.87V769.214H2116.12ZM1962.58 769.214H2024.63V1077.87C2024.89 1115.29 2002.83 1123.42 1986.08 1119.73C1973.16 1119.73 1962.62 1100.92 1962.62 1077.87V769.214H1962.58ZM2039.35 769.214H2101.4V1077.87C2101.66 1115.29 2079.6 1123.42 2062.84 1119.73C2049.93 1119.73 2039.39 1100.92 2039.39 1077.87V769.214H2039.35Z" fill="#E73C29" stroke="#E73C29" stroke-width="0.22" stroke-miterlimit="22.93"></path><path fill-rule="evenodd" clip-rule="evenodd" d="M2461.96 720.303L2648.78 1030.98C2665.5 995.232 2676.9 965.065 2684.62 940.139C2716.1 844.128 2673.48 673.003 2617.19 735.151C2587.64 777.68 2623.93 856.356 2652.81 820.546C2619.53 919.983 2475.63 667.628 2451.69 652.578C2449.35 660.641 2443.85 678.781 2441.11 685.634L2461.96 720.303Z" fill="#F2A300"></path><path opacity="0.5" fill-rule="evenodd" clip-rule="evenodd" d="M2468.85 674.011C2445.06 759.137 2384.86 803.346 2332.64 803.48C2178.8 805.697 2024.93 803.816 1871.06 803.278V743.684H2307.41C2371.61 743.684 2402.63 740.66 2441.71 640.081L2468.82 674.011H2468.85Z" fill="#231916"></path><path fill-rule="evenodd" clip-rule="evenodd" d="M1871.1 769.35C2024.86 769.82 2178.95 771.701 2332.49 769.551C2385.42 768.745 2452.7 715.802 2460.23 610.52C2462.53 578.203 2448.79 545.818 2428.34 545.818C2405.08 545.818 2390.51 587.609 2398.37 623.89C2398.9 629.869 2399.77 647.943 2394.61 662.657C2304.4 781.443 2016.5 698.199 1871.1 711.031V769.35Z" fill="#F2A300"></path><path fill-rule="evenodd" clip-rule="evenodd" d="M2269.61 1275.27H2355.91C2364.34 1396.07 2261.18 1396.07 2269.61 1275.27Z" fill="#580D11"></path><path fill-rule="evenodd" clip-rule="evenodd" d="M2426.01 1275.27H2512.3C2520.73 1396.07 2417.57 1396.07 2426.01 1275.27Z" fill="#580D11"></path><path d="M1871.1 1188.19H2423.79C2504.51 1187.59 2598.07 1154.06 2648.06 1029.77L2648.78 1030.98C2657.21 1011.56 2669.49 978.302 2681.61 944.372" stroke="#150502" stroke-width="2.4" stroke-linecap="round" stroke-linejoin="round"></path><path d="M2564.26 887.532L2644.41 1023.72" stroke="#231916" stroke-width="2.4" stroke-linecap="round" stroke-linejoin="round"></path><path fill-rule="evenodd" clip-rule="evenodd" d="M556.306 1301.81C529.424 1307.12 461.354 1277.08 461.768 1357.51C462.747 1402.79 452.77 1498.46 492.98 1497.19C519.861 1491.88 587.931 1521.91 587.48 1441.49C586.501 1396.21 596.478 1300.53 556.268 1301.81H556.306Z" stroke="#F2A300" stroke-width="2.4" stroke-miterlimit="22.93"></path><path d="M524.643 1198.27V1600.65" stroke="#F2A300" stroke-width="2.4" stroke-miterlimit="22.93"></path><path d="M637.365 1399.5H411.92" stroke="#F2A300" stroke-width="2.4" stroke-miterlimit="22.93"></path><path fill-rule="evenodd" clip-rule="evenodd" d="M490.533 1398.69C490.42 1415.35 497.121 1429.4 506.044 1432.22C508.717 1468.36 540.079 1468.9 543.166 1432.89C563.384 1427.78 563.459 1371.82 543.242 1366.64C540.569 1330.5 509.207 1329.96 506.119 1365.97C497.347 1368.73 490.646 1382.23 490.533 1398.69Z" stroke="#F2A300" stroke-width="2.4" stroke-miterlimit="22.93"></path><path fill-rule="evenodd" clip-rule="evenodd" d="M488.838 1198.27C391.74 1202.57 414.368 1162.46 411.92 1335.53C411.92 1341.78 414.782 1346.96 418.321 1346.96H488.838C492.339 1346.96 495.238 1341.85 495.238 1335.53V1209.69C495.238 1203.44 492.377 1198.27 488.838 1198.27Z" stroke="#F2A300" stroke-width="2.4" stroke-miterlimit="22.93"></path><path fill-rule="evenodd" clip-rule="evenodd" d="M488.838 1600.65C391.74 1596.35 414.368 1636.47 411.92 1463.39C411.92 1457.14 414.782 1451.97 418.321 1451.97H488.838C492.339 1451.97 495.238 1457.08 495.238 1463.39V1589.23C495.238 1595.48 492.377 1600.65 488.838 1600.65Z" stroke="#F2A300" stroke-width="2.4" stroke-miterlimit="22.93"></path><path fill-rule="evenodd" clip-rule="evenodd" d="M560.447 1198.27C657.545 1202.57 634.918 1162.46 637.365 1335.53C637.365 1341.78 634.504 1346.96 630.964 1346.96H560.447C556.946 1346.96 554.047 1341.85 554.047 1335.53V1209.69C554.047 1203.44 556.908 1198.27 560.447 1198.27Z" stroke="#F2A300" stroke-width="2.4" stroke-miterlimit="22.93"></path><path fill-rule="evenodd" clip-rule="evenodd" d="M560.447 1600.65C657.545 1596.35 634.918 1636.47 637.365 1463.39C637.365 1457.14 634.504 1451.97 630.964 1451.97H560.447C556.946 1451.97 554.047 1457.08 554.047 1463.39V1589.23C554.047 1595.48 556.908 1600.65 560.447 1600.65Z" stroke="#F2A300" stroke-width="2.4" stroke-miterlimit="22.93"></path><path fill-rule="evenodd" clip-rule="evenodd" d="M754.756 1301.81C727.874 1307.12 659.804 1277.08 660.218 1357.51C661.197 1402.79 651.22 1498.46 691.429 1497.19C718.311 1491.88 786.381 1521.91 785.967 1441.49C784.988 1396.21 794.965 1300.53 754.756 1301.81Z" stroke="#F2A300" stroke-width="2.4" stroke-miterlimit="22.93"></path><path d="M723.092 1198.27V1600.65" stroke="#F2A300" stroke-width="2.4" stroke-miterlimit="22.93"></path><path d="M835.814 1399.5H610.37" stroke="#F2A300" stroke-width="2.4" stroke-miterlimit="22.93"></path><path fill-rule="evenodd" clip-rule="evenodd" d="M688.982 1398.69C688.869 1415.35 695.57 1429.4 704.493 1432.22C707.166 1468.36 738.528 1468.9 741.616 1432.89C761.833 1427.78 761.909 1371.82 741.691 1366.64C739.018 1330.5 707.656 1329.96 704.569 1365.97C695.796 1368.73 689.095 1382.23 688.982 1398.69Z" stroke="#F2A300" stroke-width="2.4" stroke-miterlimit="22.93"></path><path fill-rule="evenodd" clip-rule="evenodd" d="M687.288 1198.27C590.19 1202.57 612.817 1162.46 610.37 1335.53C610.37 1341.78 613.231 1346.96 616.77 1346.96H687.288C690.789 1346.96 693.688 1341.85 693.688 1335.53V1209.69C693.688 1203.44 690.827 1198.27 687.288 1198.27Z" stroke="#F2A300" stroke-width="2.4" stroke-miterlimit="22.93"></path><path fill-rule="evenodd" clip-rule="evenodd" d="M687.288 1600.65C590.19 1596.35 612.817 1636.47 610.37 1463.39C610.37 1457.14 613.231 1451.97 616.77 1451.97H687.288C690.789 1451.97 693.688 1457.08 693.688 1463.39V1589.23C693.688 1595.48 690.827 1600.65 687.288 1600.65Z" stroke="#F2A300" stroke-width="2.4" stroke-miterlimit="22.93"></path><path fill-rule="evenodd" clip-rule="evenodd" d="M758.896 1198.27C855.994 1202.57 833.367 1162.46 835.814 1335.53C835.814 1341.78 832.953 1346.96 829.414 1346.96H758.896C755.395 1346.96 752.496 1341.85 752.496 1335.53V1209.69C752.496 1203.44 755.357 1198.27 758.896 1198.27Z" stroke="#F2A300" stroke-width="2.4" stroke-miterlimit="22.93"></path><path fill-rule="evenodd" clip-rule="evenodd" d="M758.896 1600.65C855.994 1596.35 833.367 1636.47 835.814 1463.39C835.814 1457.14 832.953 1451.97 829.414 1451.97H758.896C755.395 1451.97 752.496 1457.08 752.496 1463.39V1589.23C752.496 1595.48 755.357 1600.65 758.896 1600.65Z" stroke="#F2A300" stroke-width="2.4" stroke-miterlimit="22.93"></path><path fill-rule="evenodd" clip-rule="evenodd" d="M422.086 1626.99C385.604 1627.8 385.566 1525.67 422.086 1526.48H858.969V1626.99H728.965V1653.53H858.969V1677.52H728.965V1701.5H858.969V1725.49H384.098V1701.5H518.769V1677.52H384.098V1653.53H518.769V1626.99H422.086ZM715.525 1626.99H702.084V1653.53H715.525V1626.99ZM688.605 1626.99H675.202V1677.52H644.104V1653.53H661.761V1626.99H630.625V1701.5H688.643V1626.99H688.605ZM617.147 1626.99H586.011V1653.53H603.669V1677.52H572.57V1626.99H559.167V1701.5H617.185V1626.99H617.147ZM545.689 1626.99H532.248V1653.53H545.689V1626.99ZM532.21 1701.5H545.651V1677.52H532.21V1701.5ZM715.525 1701.5V1677.52H702.084V1701.5H715.525Z" fill="#580D11"></path><path fill-rule="evenodd" clip-rule="evenodd" d="M340.688 990.53C296.337 990.53 260.043 1069.54 260.043 1166.09V2154.48C260.043 2251.03 296.337 2330.04 340.688 2330.04C385.039 2330.04 421.333 2251.03 421.333 2154.48V1166.09C421.333 1069.54 385.039 990.53 340.688 990.53Z" fill="#580D11"></path><path fill-rule="evenodd" clip-rule="evenodd" d="M340.688 990.53C296.337 990.53 260.043 1069.41 260.043 1165.82V2152.87C260.043 2249.28 296.337 2328.16 340.688 2328.16V990.463V990.53Z" fill="#8D1D22" stroke="#7E191E" stroke-width="0.22" stroke-miterlimit="22.93"></path><path fill-rule="evenodd" clip-rule="evenodd" d="M421.446 1526.48H259.93C244.456 1526.48 231.769 1549.06 231.769 1576.74C231.769 1604.35 244.419 1626.99 259.93 1626.99H421.446C436.92 1626.99 449.608 1604.42 449.608 1576.74C449.608 1549.12 436.92 1526.48 421.446 1526.48Z" fill="#580D11"></path><path fill-rule="evenodd" clip-rule="evenodd" d="M858.968 1126.45H171.831L188.472 1196.39C200.256 1245.84 200.971 1275.27 220.248 1275.27H858.931V1126.45H858.968Z" fill="#580D11"></path><path fill-rule="evenodd" clip-rule="evenodd" d="M858.969 1188.19H306.277C222.206 1187.52 118.331 1149.9 74.8462 1006.79C145.25 889.681 225.707 768.677 288.318 640.148C308.987 691.882 325.515 720.571 356.087 735.084C388.164 753.762 814.957 739.585 858.969 743.751V1188.26V1188.19Z" fill="#8D1D22"></path><path fill-rule="evenodd" clip-rule="evenodd" d="M844.21 769.214H782.164V1077.87C781.9 1115.29 803.963 1123.42 820.717 1119.73C833.631 1119.73 844.172 1100.92 844.172 1077.87V769.214H844.21ZM492.603 769.214L475.134 1077.87C473.854 1100.78 485.713 1119.73 498.589 1119.73C515.343 1123.29 537.443 1115.29 537.142 1077.87V769.214H492.603ZM440.91 769.214H477.845L460.338 1077.87C459.057 1115.23 438.953 1123.49 421.785 1119.73C408.871 1119.73 395.242 1100.18 398.329 1077.87L440.91 769.214ZM397.539 769.483L324.913 1077.87C319.793 1099.64 332.142 1119.73 345.055 1119.73C362.788 1123.69 382.893 1114.15 386.959 1077.87L428.147 769.214C420.617 769.214 405.859 769.215 397.576 769.483H397.539ZM250.254 1063.02L347.39 756.113C360.642 763.302 373.405 766.729 383.533 768.274C370.732 797.299 310.832 1129.27 286.021 1116.03C269.079 1111.2 234.969 1112.94 250.254 1063.02ZM335.154 748.454C320.772 773.447 230.827 1105.49 209.141 1088.15C189.187 1078.81 162.607 1073.77 181.921 1022.98L310.644 724.401C318.437 734.479 326.758 742.273 335.191 748.387L335.154 748.454ZM300.78 709.888C296.488 702.699 292.535 694.637 288.92 685.634L123.753 960.362C103.911 988.311 133.617 1011.22 143.029 1029.36C152.253 1043.14 160.31 1026.61 168.819 1007.39L300.817 709.888H300.78ZM613.909 769.214H551.863V1077.87C551.599 1115.29 573.662 1123.42 590.416 1119.73C603.33 1119.73 613.871 1100.92 613.871 1077.87V769.214H613.909ZM767.443 769.214H705.397V1077.87C705.133 1115.29 727.196 1123.42 743.95 1119.73C756.864 1119.73 767.405 1100.92 767.405 1077.87V769.214H767.443ZM690.676 769.214H628.63V1077.87C628.367 1115.29 650.429 1123.42 667.183 1119.73C680.097 1119.73 690.639 1100.92 690.639 1077.87V769.214H690.676Z" fill="#E73C29"></path><path fill-rule="evenodd" clip-rule="evenodd" d="M268.063 720.303L81.2467 1030.98C64.5304 995.232 53.1226 965.065 45.4045 940.139C13.9297 844.128 56.5487 673.003 112.834 735.151C142.389 777.68 106.095 856.356 77.2182 820.546C110.5 919.983 254.396 667.628 278.341 652.578C280.675 660.641 286.172 678.781 288.92 685.634L268.063 720.303Z" fill="#F2A300"></path><path opacity="0.5" fill-rule="evenodd" clip-rule="evenodd" d="M261.21 674.011C285.005 759.137 345.206 803.346 397.426 803.48C551.261 805.697 705.134 803.816 859.006 803.278V743.684H422.651C358.459 743.684 327.436 740.66 288.356 640.081L261.248 674.011H261.21Z" fill="#231916"></path><path fill-rule="evenodd" clip-rule="evenodd" d="M858.969 769.35C705.209 769.82 551.11 771.701 397.576 769.551C344.641 768.745 277.362 715.802 269.832 610.52C267.536 578.203 281.278 545.818 301.721 545.818C324.988 545.818 339.559 587.609 331.69 623.89C331.163 629.869 330.297 647.943 335.455 662.657C425.663 781.443 713.567 698.199 858.969 711.031V769.35Z" fill="#F2A300"></path><path fill-rule="evenodd" clip-rule="evenodd" d="M460.451 1275.27H374.158C365.725 1396.07 468.884 1396.07 460.451 1275.27Z" fill="#580D11"></path><path fill-rule="evenodd" clip-rule="evenodd" d="M304.017 1275.27H217.725C209.292 1396.07 312.451 1396.07 304.017 1275.27Z" fill="#580D11"></path><path d="M858.968 1188.19H306.276C225.556 1187.59 131.998 1154.06 81.9994 1029.77L81.284 1030.98C72.8506 1011.56 60.5769 978.302 48.4539 944.372" stroke="#150502" stroke-width="2.4" stroke-linecap="round" stroke-linejoin="round"></path><path d="M165.807 887.532L85.6138 1023.72" stroke="#231916" stroke-width="2.4" stroke-linecap="round" stroke-linejoin="round"></path><path fill-rule="evenodd" clip-rule="evenodd" d="M1701.49 1134.58C1729.16 1140.02 1799.11 1109.11 1798.7 1191.82C1797.6 1239.39 1808.26 1335.53 1766.62 1335.47C1738.95 1330.02 1668.99 1360.93 1669.41 1278.22C1670.5 1230.65 1659.85 1134.51 1701.49 1134.58Z" stroke="#F2A300" stroke-width="2.4" stroke-miterlimit="22.93"></path><path d="M1734.05 1028.15V1441.96" stroke="#F2A300" stroke-width="2.4" stroke-miterlimit="22.93"></path><path d="M1618.09 1235.02H1849.97" stroke="#F2A300" stroke-width="2.4" stroke-miterlimit="22.93"></path><path fill-rule="evenodd" clip-rule="evenodd" d="M1769.1 1234.28C1769.22 1251.42 1762.33 1265.86 1753.14 1268.75C1750.39 1305.9 1718.13 1306.44 1714.96 1269.42C1694.18 1264.18 1694.11 1206.67 1714.89 1201.29C1717.64 1164.14 1749.9 1163.6 1753.06 1200.62C1762.06 1203.44 1768.95 1217.35 1769.07 1234.28H1769.1Z" stroke="#F2A300" stroke-width="2.4" stroke-miterlimit="22.93"></path><path d="M1843.39 1028.15H1770.87C1767.23 1028.15 1764.28 1033.42 1764.28 1039.91V1169.31C1764.28 1175.81 1767.23 1181.07 1770.87 1181.07H1843.39C1847.02 1181.07 1849.97 1175.81 1849.97 1169.31V1039.91C1849.97 1033.42 1847.02 1028.15 1843.39 1028.15Z" stroke="#F2A300" stroke-width="2.4" stroke-miterlimit="22.93"></path><path d="M1770.87 1289.04H1843.39C1847 1289.04 1849.97 1294.28 1849.97 1300.8V1430.2C1849.97 1436.65 1847.04 1441.96 1843.39 1441.96H1770.87C1767.26 1441.96 1764.28 1436.72 1764.28 1430.2V1300.8C1764.28 1294.35 1767.22 1289.04 1770.87 1289.04Z" stroke="#F2A300" stroke-width="2.4" stroke-miterlimit="22.93"></path><path d="M1697.19 1028.15H1624.68C1621.04 1028.15 1618.09 1033.42 1618.09 1039.91V1169.31C1618.09 1175.81 1621.04 1181.07 1624.68 1181.07H1697.19C1700.83 1181.07 1703.78 1175.81 1703.78 1169.31V1039.91C1703.78 1033.42 1700.83 1028.15 1697.19 1028.15Z" stroke="#F2A300" stroke-width="2.4" stroke-miterlimit="22.93"></path><path d="M1624.68 1289.04H1697.19C1700.81 1289.04 1703.78 1294.28 1703.78 1300.8V1430.2C1703.78 1436.65 1700.85 1441.96 1697.19 1441.96H1624.64C1621.03 1441.96 1618.05 1436.72 1618.05 1430.2V1300.8C1618.05 1294.35 1620.99 1289.04 1624.64 1289.04H1624.68Z" stroke="#F2A300" stroke-width="2.4" stroke-miterlimit="22.93"></path><path fill-rule="evenodd" clip-rule="evenodd" d="M1028.54 1134.71C1000.87 1140.15 930.916 1109.25 931.331 1191.95C932.422 1239.52 921.768 1335.67 963.408 1335.6C991.08 1330.16 1061.03 1361.06 1060.62 1278.36C1059.53 1230.79 1070.18 1134.64 1028.54 1134.71Z" stroke="#F2A300" stroke-width="2.4" stroke-miterlimit="22.93"></path><path d="M996.012 1028.29V1442.03" stroke="#F2A300" stroke-width="2.4" stroke-miterlimit="22.93"></path><path d="M1111.93 1235.16H880.053" stroke="#F2A300" stroke-width="2.4" stroke-miterlimit="22.93"></path><path fill-rule="evenodd" clip-rule="evenodd" d="M960.923 1234.42C960.81 1251.55 967.7 1265.99 976.887 1268.88C979.635 1306.04 1011.9 1306.58 1015.06 1269.56C1035.85 1264.31 1035.92 1206.8 1015.14 1201.43C1012.39 1164.27 980.124 1163.74 976.962 1200.76C967.964 1203.58 961.074 1217.49 960.961 1234.42H960.923Z" stroke="#F2A300" stroke-width="2.4" stroke-miterlimit="22.93"></path><path d="M959.154 1028.29H886.641C883.003 1028.29 880.053 1033.55 880.053 1040.04V1169.45C880.053 1175.94 883.003 1181.2 886.641 1181.2H959.154C962.793 1181.2 965.743 1175.94 965.743 1169.45V1040.04C965.743 1033.55 962.793 1028.29 959.154 1028.29Z" stroke="#F2A300" stroke-width="2.4" stroke-miterlimit="22.93"></path><path d="M886.641 1289.11H959.154C962.768 1289.11 965.743 1294.35 965.743 1300.86V1430.27C965.743 1436.72 962.806 1442.02 959.154 1442.02H886.641C883.027 1442.02 880.053 1436.78 880.053 1430.27V1300.86C880.053 1294.41 882.989 1289.11 886.641 1289.11Z" stroke="#F2A300" stroke-width="2.4" stroke-miterlimit="22.93"></path><path d="M1032.83 1028.29H1105.35C1108.96 1028.29 1111.93 1033.53 1111.93 1040.04V1169.45C1111.93 1175.9 1109 1181.2 1105.35 1181.2H1032.8C1029.18 1181.2 1026.21 1175.96 1026.21 1169.45V1040.04C1026.21 1033.59 1029.14 1028.29 1032.8 1028.29H1032.83Z" stroke="#F2A300" stroke-width="2.4" stroke-miterlimit="22.93"></path><path d="M1032.83 1289.11H1105.35C1108.96 1289.11 1111.94 1294.35 1111.94 1300.86V1430.27C1111.94 1436.72 1109 1442.02 1105.35 1442.02H1032.83C1029.22 1442.02 1026.25 1436.78 1026.25 1430.27V1300.86C1026.25 1294.41 1029.18 1289.11 1032.83 1289.11Z" stroke="#F2A300" stroke-width="2.4" stroke-miterlimit="22.93"></path><path fill-rule="evenodd" clip-rule="evenodd" d="M1115.47 1470.45V1497.72H1614.55V1470.38C1448.14 1470.38 1281.88 1470.51 1115.47 1470.51V1470.45ZM1614.55 1546.97H1115.47V1522.38H1614.55V1546.97ZM1115.47 1571.7V1645.87H1073.98V1719.91H963.258V1645.87H852.493V1621.21H963.258V1596.56H1004.75V1621.21H1004.78V1670.6H990.967V1621.21H977.075V1695.25H1018.64V1645.87H1018.6V1621.21H1032.42V1571.83H852.456V1547.17H990.967V1522.52H852.456V1497.86H990.967V1470.58H883.818C867.892 1470.58 854.865 1447.33 854.865 1418.91C854.865 1390.49 867.892 1367.25 883.818 1367.25H1124.89C1119.99 1333.99 1088.74 1359.12 1088.74 1296.57V1168.78C1088.74 1110.39 1115.96 1129.14 1123.61 1103.34H883.78C867.854 1103.34 854.827 1080.09 854.827 1051.67C854.827 1023.25 867.854 1000 883.78 1000C1204.63 1000 1525.32 999.869 1846.17 999.869C1883.44 998.995 1883.93 1104.08 1846.17 1103.2H1606.38C1614.03 1128.94 1641.25 1110.26 1641.25 1168.58V1296.37C1641.25 1358.92 1610 1333.79 1605.1 1367.11H1846.17C1862.1 1367.11 1875.12 1390.36 1875.12 1418.78C1875.12 1447.2 1862.1 1470.45 1846.17 1470.45H1739.02V1497.72H1877.53V1522.38H1739.02V1547.04H1877.53V1571.7H1697.57V1621.08H1711.39V1645.74H1711.35V1695.12H1752.91V1621.08H1739.02V1670.46H1725.2V1621.08H1725.24V1596.42H1766.73V1621.08H1877.5V1645.74H1766.73V1719.78H1656.01V1645.74H1614.52V1571.7H1115.44H1115.47ZM1725.24 1470.38H1711.42V1497.66H1725.24V1470.38ZM1697.57 1470.38H1683.79V1522.31H1642.3V1497.66H1669.97V1473H1628.41V1547.04H1669.9V1571.7H1697.57V1470.38ZM1725.24 1546.97V1522.31H1711.42V1546.97H1725.24ZM1628.37 1571.7V1621.08H1656.04V1571.7H1628.37ZM1669.9 1645.74V1695.12H1697.57V1645.74H1669.9ZM1683.79 1621.08V1595.95H1669.9V1621.08H1683.79ZM1004.82 1470.45V1497.72H1018.64V1470.45H1004.82ZM1032.49 1470.45V1571.76H1060.17V1547.11H1101.66V1473.07H1060.09V1497.72H1087.76V1522.38H1046.27V1470.45H1032.49ZM1004.82 1547.11H1018.64V1522.45H1004.82V1547.11ZM1101.66 1571.76H1073.98V1621.15H1101.66V1571.76ZM1060.13 1645.87H1032.46V1695.25H1060.13V1645.87ZM1046.27 1621.15H1060.17V1596.02H1046.27V1621.15Z" fill="#580D11"></path><path fill-rule="evenodd" clip-rule="evenodd" d="M1161.86 1343.53H1180.12C1185.46 1359.12 1195.06 1369.53 1205.98 1369.53C1219.08 1359.19 1556.95 1396.27 1549.98 1343.46H1568.21C1572.35 1316.66 1588.12 1290.12 1602.09 1283.47V1181.54C1587.97 1174.35 1572.61 1148.15 1568.32 1121.41H1549.95C1544.6 1105.89 1535 1095.41 1524.08 1095.41C1510.98 1105.76 1173.11 1068.67 1180.08 1121.48H1161.74C1157.45 1148.22 1142.09 1174.42 1127.97 1181.61V1283.53C1141.94 1290.18 1157.72 1316.66 1161.86 1343.53Z" fill="#F2A300"></path><path fill-rule="evenodd" clip-rule="evenodd" d="M1925.91 729.776C1971.54 729.776 2008.85 796.359 2008.85 877.789V2489.14C2008.85 2570.57 1971.54 2637.15 1925.91 2637.15C1876.89 2645.88 1837.7 2537.85 1842.97 2488.67C1842.97 2453.8 1842.93 878.73 1842.97 875.371C1843.72 795.082 1880.73 729.776 1925.91 729.776Z" fill="#580D11"></path><path fill-rule="evenodd" clip-rule="evenodd" d="M1925.95 729.776C1971.58 729.776 2008.89 806.235 2008.89 899.76V2467.23C2008.89 2560.69 1971.58 2637.22 1925.95 2637.22V729.844V729.776Z" fill="#B52023"></path><path d="M1966.95 1172.41V1763.99" stroke="#580D11" stroke-width="2.4" stroke-linecap="round" stroke-linejoin="round"></path><path d="M2008.85 877.79V2493.77" stroke="#150502" stroke-width="2.4" stroke-linecap="round" stroke-linejoin="round"></path><path fill-rule="evenodd" clip-rule="evenodd" d="M1842.9 948.067H2009C2024.93 948.067 2037.96 971.314 2037.96 999.734C2037.96 1028.15 2024.93 1051.4 2009 1051.4H1842.9C1826.97 1051.4 1813.94 1028.15 1813.94 999.734C1813.94 971.314 1826.97 948.067 1842.9 948.067Z" fill="#580D11"></path><path fill-rule="evenodd" clip-rule="evenodd" d="M804.113 729.912C755.094 721.245 715.901 829.147 721.172 878.395C721.172 913.399 721.134 2488.2 721.172 2491.69C721.925 2571.98 758.934 2637.28 804.113 2637.28C849.293 2637.28 887.055 2570.7 887.055 2489.27V877.925C887.055 796.494 849.744 729.912 804.113 729.912Z" fill="#580D11"></path><path fill-rule="evenodd" clip-rule="evenodd" d="M804.113 729.911C758.482 729.911 721.172 806.37 721.172 899.894V2467.37C721.172 2560.82 758.482 2637.35 804.113 2637.35V729.978V729.911Z" fill="#B52023"></path><path d="M763.076 1172.47V1764.05" stroke="#580D11" stroke-width="2.4" stroke-linecap="round" stroke-linejoin="round"></path><path d="M721.172 877.924V2493.84" stroke="#150502" stroke-width="2.4" stroke-linecap="round" stroke-linejoin="round"></path><path fill-rule="evenodd" clip-rule="evenodd" d="M887.168 948.202H721.059C705.134 948.202 692.107 971.449 692.107 999.869C692.107 1028.29 705.134 1051.54 721.059 1051.54H887.168C903.094 1051.54 916.12 1028.29 916.12 999.869C916.12 971.449 903.094 948.202 887.168 948.202Z" fill="#580D11"></path><path fill-rule="evenodd" clip-rule="evenodd" d="M1320.66 889.816C1320.66 898.953 1320.44 912.525 1321.42 921.125H1248.41C1249.39 912.525 1249.13 898.819 1249.17 889.816H1160.43C1160.43 898.953 1160.2 912.525 1161.18 921.125H1088.18C1089.16 912.525 1088.89 898.819 1088.93 889.816H1000.19C1000.19 898.953 999.966 912.525 1000.94 921.125H927.943C928.921 912.525 928.658 898.819 928.696 889.816H839.956C839.956 898.953 839.73 912.525 840.709 921.125H767.707C768.686 912.525 768.422 898.819 768.46 889.816H679.721C671.777 987.976 745.268 1017.2 764.77 939.064H843.646C858.028 998.793 910.661 998.793 925.044 939.064H1003.92C1018.3 998.793 1070.93 998.793 1085.32 939.064H1164.19C1178.57 998.793 1231.21 998.793 1245.59 939.064H1324.47C1338.85 998.793 1391.48 998.793 1405.86 939.064H1484.74C1499.16 998.659 1551.68 998.659 1566.1 939.064H1645.01C1659.43 998.659 1711.95 998.659 1726.37 939.064H1805.28C1819.7 998.659 1872.23 998.659 1886.65 939.064H1965.56C1985.14 1017.07 2058.51 987.775 2050.61 889.682H1961.87C1961.87 898.819 1961.64 912.458 1962.62 921.125H1889.58C1890.56 912.525 1890.3 898.752 1890.33 889.682H1801.6C1801.6 898.819 1801.37 912.458 1802.35 921.125H1729.31C1730.29 912.525 1730.02 898.819 1730.06 889.682H1641.32C1641.32 898.819 1641.1 912.458 1642.08 921.125H1569.04C1570.01 912.525 1569.75 898.752 1569.79 889.682H1481.05C1481.05 898.819 1480.82 912.458 1481.8 921.125H1408.76C1409.74 912.458 1409.48 898.819 1409.52 889.682H1320.78V889.816H1320.66Z" fill="#580D11"></path><path fill-rule="evenodd" clip-rule="evenodd" d="M626.484 736.765L643.615 808.655C655.738 859.516 656.453 889.817 676.294 889.817C1135.5 889.817 1594.56 889.683 2053.77 889.683C2073.57 889.683 2074.33 859.381 2086.45 808.521L2103.58 736.631C1611.16 736.631 1118.9 736.765 626.484 736.765Z" fill="#580D11"></path><path fill-rule="evenodd" clip-rule="evenodd" d="M1396.9 800.122V800.256H764.695C678.252 799.517 571.403 760.884 526.676 613.678L723.281 286.745C721.285 281.169 719.44 275.391 717.784 269.478L746.247 236.624C767.519 289.836 784.498 319.331 815.936 334.247C848.954 353.395 1287.83 338.882 1333.12 343.182V343.048C1376.87 338.748 1886.76 353.328 1914.09 334.179C1945.57 319.264 1962.51 289.769 1983.78 236.557L2012.24 269.411C2010.59 275.391 2008.74 281.102 2006.75 286.678L2203.35 613.61C2158.59 760.817 2051.81 799.45 1965.33 800.189H1396.94L1396.9 800.122Z" fill="#8D1D22"></path><path fill-rule="evenodd" clip-rule="evenodd" d="M725.427 319.063L533.302 638.537C514.402 595.134 476.941 484.343 462.86 445.844C440.534 384.973 436.619 339.152 402.734 331.291C394.075 331.156 393.887 314.763 399.459 302.938C416.062 270.621 441.4 306.499 458.87 326.924C506.496 387.997 505.781 503.558 600.619 398.814L735.931 249.39C738.34 257.721 743.988 276.332 746.812 283.386L725.389 319.063H725.427Z" fill="#F2A300"></path><path fill-rule="evenodd" clip-rule="evenodd" d="M1412.08 369.251H1475.85V686.71C1476.12 725.208 1453.41 733.54 1436.17 729.777C1422.88 729.777 1412.04 710.427 1412.04 686.71V369.251H1412.08ZM1317.95 369.386H1254.17V686.845C1253.91 725.343 1276.61 733.674 1293.86 729.912C1307.15 729.912 1317.99 710.562 1317.99 686.845V369.386H1317.95ZM956.368 369.386L938.371 686.845C937.053 710.427 949.252 729.912 962.504 729.912C979.71 733.607 1002.45 725.41 1002.15 686.845V369.386H956.33H956.368ZM903.207 369.386H941.195L923.198 686.845C921.881 725.276 901.211 733.808 883.516 729.912C870.264 729.912 856.22 709.823 859.383 686.845L903.169 369.386H903.207ZM858.592 369.655L783.896 686.845C778.625 709.218 791.351 729.912 804.603 729.912C822.863 733.943 843.533 724.133 847.712 686.845L890.067 369.386C882.311 369.386 867.139 369.386 858.63 369.655H858.592ZM707.129 671.526L807.013 355.949C820.642 363.339 833.744 366.833 844.173 368.445C830.995 398.343 769.401 739.721 743.875 726.082C726.443 721.11 691.354 722.857 707.091 671.593L707.129 671.526ZM794.438 348.02C779.642 373.686 687.137 715.197 664.811 697.393C644.292 687.785 616.921 682.612 636.8 630.407L769.175 323.363C777.157 333.71 785.779 341.772 794.4 348.02H794.438ZM759.047 308.38C754.642 300.989 750.539 292.658 746.849 283.386L576.975 565.908C556.569 594.664 587.141 618.247 596.779 636.857C606.267 651.034 614.549 634.036 623.284 614.283L759.01 308.38H759.047ZM1333.12 687.852C1333.27 725.746 1355.75 733.54 1372.77 729.912C1386.06 729.912 1396.94 710.36 1396.9 686.777C1396.9 686.777 1396.9 369.386 1396.9 369.319H1333.12C1333.12 371.2 1333.12 686.24 1333.12 687.852ZM1081.1 369.386H1017.32V686.845C1017.06 725.343 1039.76 733.674 1057 729.912C1070.29 729.912 1081.14 710.562 1081.14 686.845V369.386H1081.1ZM1239 369.386H1175.22V686.845C1174.96 725.343 1197.66 733.674 1214.91 729.912C1228.2 729.912 1239.04 710.562 1239.04 686.845V369.386H1239ZM1160.05 369.386H1096.27V686.845C1096.01 725.343 1118.71 733.674 1135.95 729.912C1149.25 729.912 1160.09 710.562 1160.09 686.845V369.386H1160.05ZM1773.7 369.251L1791.69 686.71C1793.01 710.293 1780.81 729.777 1767.56 729.777C1750.35 733.472 1727.61 725.275 1727.92 686.71V369.251H1773.73H1773.7ZM1826.86 369.251H1788.87L1806.87 686.71C1808.18 725.141 1828.85 733.674 1846.55 729.777C1859.8 729.777 1873.84 709.688 1870.68 686.71L1826.9 369.251H1826.86ZM1871.43 369.52L1946.13 686.71C1951.4 709.083 1938.68 729.777 1925.42 729.777C1907.16 733.808 1886.49 723.999 1882.32 686.71L1839.96 369.251C1847.72 369.251 1862.85 369.251 1871.4 369.52H1871.43ZM2022.9 671.459L1923.01 355.881C1909.38 363.272 1896.28 366.765 1885.85 368.378C1899.03 398.276 1960.63 739.654 1986.15 726.015C2003.58 721.043 2038.67 722.79 2022.94 671.526L2022.9 671.459ZM1935.63 347.886C1950.42 373.551 2042.93 715.063 2065.25 697.259C2085.77 687.651 2113.14 682.477 2093.26 630.273L1960.89 323.228C1952.91 333.575 1944.29 341.638 1935.66 347.886H1935.63ZM1970.98 308.313C1975.38 300.922 1979.49 292.591 1983.18 283.319L2153.05 565.841C2173.46 594.597 2142.89 618.179 2133.25 636.79C2123.76 650.967 2115.48 633.968 2106.74 614.215L1971.02 308.313H1970.98ZM1648.93 369.251H1712.7V686.71C1712.97 725.208 1690.27 733.54 1673.02 729.777C1659.73 729.777 1648.89 710.427 1648.89 686.71V369.251H1648.93ZM1491.03 369.251H1554.8V686.71C1555.07 725.208 1532.36 733.54 1515.12 729.777C1501.83 729.777 1490.99 710.427 1490.99 686.71V369.251H1491.03ZM1569.98 369.251H1633.75V686.71C1634.02 725.208 1611.32 733.54 1594.07 729.777C1580.78 729.777 1569.94 710.427 1569.94 686.71V369.251H1569.98Z" fill="#E73C29" stroke="#8D1D22" stroke-width="0.22" stroke-miterlimit="22.93"></path><path fill-rule="evenodd" clip-rule="evenodd" d="M2004.6 318.928L2196.72 638.402C2241 549.312 2285.46 328.2 2343.44 304.348C2353.57 301.795 2354.55 284.192 2350.22 270.217C2338.7 234.81 2314 261.819 2299.17 280.363C2241.56 356.754 2224.25 503.491 2129.41 398.679L1994.1 249.255C1991.69 257.586 1986.04 276.197 1983.21 283.252L2004.64 318.928H2004.6Z" fill="#F2A300"></path><path d="M2067.55 419.239L2192.24 630.946" stroke="#150502" stroke-width="2.4" stroke-linecap="round" stroke-linejoin="round"></path><path d="M662.477 419.373L537.82 631.079" stroke="#150502" stroke-width="2.4" stroke-linecap="round" stroke-linejoin="round"></path><path d="M2267.17 445.778C2197.82 678.649 2120.41 807.984 1965.33 800.19C1836.16 768.007 667.259 883.099 582.435 719.162C528.822 657.014 496.858 538.832 462.86 445.913" stroke="#150502" stroke-width="2.4" stroke-linecap="round" stroke-linejoin="round"></path><path opacity="0.5" fill-rule="evenodd" clip-rule="evenodd" d="M717.784 269.479C742.444 357.695 804.565 403.853 858.442 404.659C1195.14 409.564 1534.89 409.43 1871.62 404.525C1925.5 403.719 1987.62 357.561 2012.28 269.345L1983.82 236.49C1943.65 339.958 1911.72 343.049 1845.72 343.049C1525.25 343.049 1204.89 343.183 884.42 343.183C818.383 343.183 786.494 340.093 746.322 236.625L717.859 269.479H717.784Z" fill="#231916"></path><path fill-rule="evenodd" clip-rule="evenodd" d="M842.215 305.424C808.518 292.658 787.058 266.455 790.823 219.895C807.916 126.437 723.055 108.901 727.234 206.121C734.989 314.359 804.151 368.848 858.592 369.654C1195.97 370.729 1534.13 370.528 1871.43 369.52C1925.88 368.714 1995.07 314.225 2002.79 205.987C2005.16 172.729 1991.01 139.472 1970 139.472C1946.09 139.472 1931.07 182.404 1939.2 219.76C1939.73 225.874 1940.63 244.485 1935.33 259.669C1879.57 376.642 923.612 294.674 842.215 305.424Z" fill="#F2A300"></path><path d="M1764.44 314.694L983.927 314.829" stroke="#150502" stroke-width="2.4" stroke-linecap="round" stroke-linejoin="round"></path></g></svg> 